<svg width="1000" height="800" viewBox="0 0 1000 800" xmlns="http://www.w3.org/2000/svg">
  <defs>
    <linearGradient id="hbg" x1="0" y1="0" x2="1" y2="1">
      <stop offset="0" stop-color="#eef2ff"/>
      <stop offset="1" stop-color="#e0f2fe"/>
    </linearGradient>
    <linearGradient id="hacc" x1="0" y1="0" x2="1" y2="1">
      <stop offset="0" stop-color="#4f46e5"/>
      <stop offset="1" stop-color="#0284c7"/>
    </linearGradient>
    <radialGradient id="hglow1" cx="0.2" cy="0.15" r="0.7">
      <stop offset="0" stop-color="#818cf8" stop-opacity="0.4"/>
      <stop offset="1" stop-color="#818cf8" stop-opacity="0"/>
    </radialGradient>
    <radialGradient id="hglow2" cx="0.85" cy="0.85" r="0.7">
      <stop offset="0" stop-color="#38bdf8" stop-opacity="0.35"/>
      <stop offset="1" stop-color="#38bdf8" stop-opacity="0"/>
    </radialGradient>
  </defs>
  <rect width="1000" height="800" rx="28" fill="url(#hbg)"/>
  <rect width="1000" height="800" rx="28" fill="url(#hglow1)"/>
  <rect width="1000" height="800" rx="28" fill="url(#hglow2)"/>

  <!-- code editor card -->
  <g>
    <rect x="130" y="120" width="560" height="380" rx="20" fill="#0f1b3d"/>
    <rect x="130" y="120" width="560" height="44" rx="20" fill="#18244d"/>
    <rect x="130" y="150" width="560" height="14" fill="#18244d"/>
    <circle cx="162" cy="142" r="6" fill="#f87171"/>
    <circle cx="184" cy="142" r="6" fill="#fbbf24"/>
    <circle cx="206" cy="142" r="6" fill="#34d399"/>

    <rect x="160" y="200" width="90" height="12" rx="6" fill="#818cf8"/>
    <rect x="160" y="228" width="220" height="12" rx="6" fill="#38bdf8"/>
    <rect x="188" y="256" width="180" height="12" rx="6" fill="#e2e8f0" opacity="0.8"/>
    <rect x="188" y="284" width="240" height="12" rx="6" fill="#e2e8f0" opacity="0.55"/>
    <rect x="216" y="312" width="150" height="12" rx="6" fill="#38bdf8" opacity="0.85"/>
    <rect x="160" y="340" width="60" height="12" rx="6" fill="#818cf8"/>
    <rect x="160" y="380" width="130" height="12" rx="6" fill="#38bdf8"/>
    <rect x="188" y="408" width="260" height="12" rx="6" fill="#e2e8f0" opacity="0.7"/>
    <rect x="188" y="436" width="200" height="12" rx="6" fill="#e2e8f0" opacity="0.5"/>
  </g>

  <!-- floating dashboard card -->
  <g>
    <rect x="560" y="430" width="320" height="230" rx="18" fill="#ffffff" stroke="#c7d2fe" stroke-width="2"/>
    <rect x="588" y="458" width="140" height="16" rx="8" fill="url(#hacc)"/>
    <rect x="588" y="494" width="264" height="70" rx="10" fill="#eef2ff"/>
    <polyline points="600,548 630,520 662,534 694,500 726,514 758,486 792,504 824,470"
      fill="none" stroke="url(#hacc)" stroke-width="4" stroke-linecap="round" stroke-linejoin="round"/>
    <rect x="588" y="580" width="120" height="44" rx="10" fill="#e0f2fe"/>
    <rect x="720" y="580" width="132" height="44" rx="10" fill="#eef2ff"/>
    <rect x="602" y="596" width="60" height="10" rx="5" fill="#0284c7"/>
    <rect x="734" y="596" width="70" height="10" rx="5" fill="#4f46e5"/>
  </g>

  <!-- floating badge -->
  <g>
    <rect x="110" y="540" width="220" height="90" rx="16" fill="#ffffff" stroke="#bae6fd" stroke-width="2"/>
    <circle cx="152" cy="585" r="20" fill="url(#hacc)"/>
    <path d="M144 585 l6 6 12 -14" stroke="#ffffff" stroke-width="3.4" fill="none" stroke-linecap="round" stroke-linejoin="round"/>
    <rect x="188" y="570" width="120" height="12" rx="6" fill="#c7d2fe"/>
    <rect x="188" y="592" width="90" height="10" rx="5" fill="#dbeafe"/>
  </g>

  <circle cx="860" cy="150" r="46" fill="#4f46e5" fill-opacity="0.14"/>
  <circle cx="140" cy="700" r="34" fill="#0284c7" fill-opacity="0.14"/>
</svg>
