<svg width="640" height="240" viewBox="0 0 640 240" xmlns="http://www.w3.org/2000/svg">
  <defs>
    <linearGradient id="bg" x1="0" y1="0" x2="1" y2="1">
      <stop offset="0" stop-color="#eef2ff"/>
      <stop offset="1" stop-color="#e0f2fe"/>
    </linearGradient>
    <linearGradient id="acc" x1="0" y1="0" x2="1" y2="1">
      <stop offset="0" stop-color="#4f46e5"/>
      <stop offset="1" stop-color="#0284c7"/>
    </linearGradient>
    <radialGradient id="glow" cx="0.5" cy="0.5" r="0.7">
      <stop offset="0" stop-color="#818cf8" stop-opacity="0.4"/>
      <stop offset="1" stop-color="#818cf8" stop-opacity="0"/>
    </radialGradient>
  </defs>
  <rect width="640" height="240" fill="url(#bg)"/>
  <rect width="640" height="240" fill="url(#glow)"/>
  <!-- neural network -->
  <g stroke="#a5b4fc" stroke-width="2">
    <line x1="230" y1="70" x2="320" y2="120"/>
    <line x1="230" y1="70" x2="320" y2="170"/>
    <line x1="230" y1="170" x2="320" y2="120"/>
    <line x1="230" y1="170" x2="320" y2="170"/>
    <line x1="320" y1="120" x2="410" y2="70"/>
    <line x1="320" y1="120" x2="410" y2="120"/>
    <line x1="320" y1="170" x2="410" y2="120"/>
    <line x1="320" y1="170" x2="410" y2="170"/>
  </g>
  <g fill="#ffffff" stroke="url(#acc)" stroke-width="3">
    <circle cx="230" cy="70" r="15"/>
    <circle cx="230" cy="170" r="15"/>
    <circle cx="320" cy="120" r="15"/>
    <circle cx="320" cy="170" r="15"/>
    <circle cx="410" cy="70" r="15"/>
    <circle cx="410" cy="120" r="15"/>
    <circle cx="410" cy="170" r="15"/>
  </g>
  <!-- spark -->
  <g stroke="url(#acc)" stroke-width="7" stroke-linecap="round">
    <path d="M470 60v34M453 77h34"/>
  </g>
  <path d="M500 120l6 16 16 6-16 6-6 16-6-16-16-6 16-6z" fill="url(#acc)"/>
  <circle cx="120" cy="80" r="34" fill="#4f46e5" fill-opacity="0.12"/>
  <circle cx="540" cy="190" r="30" fill="#0284c7" fill-opacity="0.12"/>
</svg>
