<svg width="640" height="240" viewBox="0 0 640 240" xmlns="http://www.w3.org/2000/svg">
  <defs>
    <linearGradient id="bg" x1="0" y1="0" x2="1" y2="1">
      <stop offset="0" stop-color="#eef2ff"/>
      <stop offset="1" stop-color="#e0f2fe"/>
    </linearGradient>
    <linearGradient id="acc" x1="0" y1="0" x2="1" y2="1">
      <stop offset="0" stop-color="#4f46e5"/>
      <stop offset="1" stop-color="#0284c7"/>
    </linearGradient>
    <radialGradient id="glow" cx="0.7" cy="0.2" r="0.9">
      <stop offset="0" stop-color="#818cf8" stop-opacity="0.35"/>
      <stop offset="1" stop-color="#818cf8" stop-opacity="0"/>
    </radialGradient>
  </defs>
  <rect width="640" height="240" fill="url(#bg)"/>
  <rect width="640" height="240" fill="url(#glow)"/>
  <!-- database stack -->
  <g transform="translate(190 52)">
    <ellipse cx="70" cy="18" rx="70" ry="18" fill="url(#acc)"/>
    <path d="M0 18v44c0 10 31 18 70 18s70-8 70-18V18" fill="#ffffff" stroke="#c7d2fe" stroke-width="2"/>
    <ellipse cx="70" cy="18" rx="70" ry="18" fill="#ffffff" fill-opacity="0.15"/>
    <path d="M0 62v44c0 10 31 18 70 18s70-8 70-18V62" fill="#ffffff" stroke="#c7d2fe" stroke-width="2"/>
    <path d="M0 62c0 10 31 18 70 18s70-8 70-18" fill="none" stroke="#c7d2fe" stroke-width="2"/>
    <path d="M0 106v14c0 10 31 18 70 18s70-8 70-18v-14" fill="#eef2ff" stroke="#c7d2fe" stroke-width="2"/>
  </g>
  <!-- API nodes -->
  <g stroke="#a5b4fc" stroke-width="2">
    <line x1="330" y1="90" x2="430" y2="70"/>
    <line x1="330" y1="120" x2="430" y2="130"/>
    <line x1="330" y1="150" x2="430" y2="180"/>
  </g>
  <g fill="url(#acc)">
    <circle cx="440" cy="68" r="14"/>
    <circle cx="440" cy="130" r="14"/>
    <circle cx="440" cy="182" r="14"/>
  </g>
  <rect x="466" y="60" width="70" height="12" rx="6" fill="#c7d2fe"/>
  <rect x="466" y="124" width="54" height="12" rx="6" fill="#dbeafe"/>
  <rect x="466" y="176" width="62" height="12" rx="6" fill="#dbeafe"/>
  <circle cx="120" cy="70" r="34" fill="#4f46e5" fill-opacity="0.12"/>
  <circle cx="560" cy="200" r="30" fill="#0284c7" fill-opacity="0.12"/>
</svg>
