<svg width="640" height="240" viewBox="0 0 640 240" xmlns="http://www.w3.org/2000/svg">
  <defs>
    <linearGradient id="bg" x1="0" y1="0" x2="1" y2="1">
      <stop offset="0" stop-color="#eef2ff"/>
      <stop offset="1" stop-color="#e0f2fe"/>
    </linearGradient>
    <linearGradient id="acc" x1="0" y1="0" x2="1" y2="1">
      <stop offset="0" stop-color="#4f46e5"/>
      <stop offset="1" stop-color="#0284c7"/>
    </linearGradient>
    <radialGradient id="glow" cx="0.3" cy="0.2" r="0.9">
      <stop offset="0" stop-color="#818cf8" stop-opacity="0.35"/>
      <stop offset="1" stop-color="#818cf8" stop-opacity="0"/>
    </radialGradient>
  </defs>
  <rect width="640" height="240" fill="url(#bg)"/>
  <rect width="640" height="240" fill="url(#glow)"/>
  <!-- browser window -->
  <rect x="150" y="44" width="340" height="152" rx="16" fill="#ffffff" stroke="#c7d2fe" stroke-width="2"/>
  <rect x="150" y="44" width="340" height="36" rx="16" fill="url(#acc)"/>
  <rect x="150" y="66" width="340" height="14" fill="url(#acc)"/>
  <circle cx="174" cy="62" r="5" fill="#ffffff" fill-opacity="0.9"/>
  <circle cx="192" cy="62" r="5" fill="#ffffff" fill-opacity="0.6"/>
  <circle cx="210" cy="62" r="5" fill="#ffffff" fill-opacity="0.4"/>
  <!-- code brackets -->
  <g stroke="url(#acc)" stroke-width="7" stroke-linecap="round" stroke-linejoin="round" fill="none">
    <path d="M270 108l-24 30 24 30"/>
    <path d="M370 108l24 30-24 30"/>
    <path d="M330 100l-20 76"/>
  </g>
  <rect x="176" y="104" width="60" height="12" rx="6" fill="#c7d2fe"/>
  <rect x="176" y="164" width="44" height="12" rx="6" fill="#dbeafe"/>
  <rect x="404" y="104" width="70" height="12" rx="6" fill="#dbeafe"/>
  <circle cx="110" cy="196" r="30" fill="#0284c7" fill-opacity="0.12"/>
  <circle cx="540" cy="60" r="40" fill="#4f46e5" fill-opacity="0.12"/>
</svg>
