<svg width="800" height="600" viewBox="0 0 800 600" xmlns="http://www.w3.org/2000/svg">
  <defs>
    <linearGradient id="bg3" x1="0" y1="0" x2="1" y2="1">
      <stop offset="0" stop-color="#eef2ff"/>
      <stop offset="1" stop-color="#e0f2fe"/>
    </linearGradient>
    <linearGradient id="acc3" x1="0" y1="0" x2="1" y2="1">
      <stop offset="0" stop-color="#4f46e5"/>
      <stop offset="1" stop-color="#0284c7"/>
    </linearGradient>
    <radialGradient id="glow3" cx="0.25" cy="0.8" r="0.8">
      <stop offset="0" stop-color="#a5b4fc" stop-opacity="0.35"/>
      <stop offset="1" stop-color="#a5b4fc" stop-opacity="0"/>
    </radialGradient>
  </defs>
  <rect width="800" height="600" fill="url(#bg3)"/>
  <rect width="800" height="600" fill="url(#glow3)"/>
  <!-- two phone mockups -->
  <g>
    <rect x="470" y="150" width="180" height="340" rx="28" fill="#ffffff" stroke="#c7d2fe" stroke-width="2"/>
    <rect x="486" y="176" width="148" height="260" rx="10" fill="#eef2ff"/>
    <rect x="486" y="176" width="148" height="60" rx="10" fill="url(#acc3)"/>
    <rect x="502" y="196" width="90" height="12" rx="6" fill="#ffffff" fill-opacity="0.85"/>
    <rect x="502" y="252" width="116" height="40" rx="8" fill="#ffffff"/>
    <rect x="502" y="302" width="116" height="40" rx="8" fill="#ffffff"/>
    <rect x="502" y="352" width="116" height="40" rx="8" fill="#ffffff"/>
    <circle cx="560" cy="462" r="10" fill="#c7d2fe"/>

    <rect x="220" y="230" width="180" height="340" rx="28" fill="#ffffff" stroke="#bae6fd" stroke-width="2"/>
    <rect x="236" y="256" width="148" height="260" rx="10" fill="#e0f2fe"/>
    <circle cx="310" cy="320" r="34" fill="url(#acc3)"/>
    <rect x="252" y="380" width="116" height="12" rx="6" fill="#bae6fd"/>
    <rect x="252" y="404" width="90" height="12" rx="6" fill="#bae6fd"/>
    <rect x="252" y="450" width="116" height="36" rx="18" fill="url(#acc3)"/>
    <circle cx="310" cy="542" r="10" fill="#bae6fd"/>
  </g>
  <circle cx="130" cy="140" r="36" fill="#4f46e5" fill-opacity="0.12"/>
  <circle cx="680" cy="520" r="28" fill="#0284c7" fill-opacity="0.14"/>
</svg>
