<svg width="800" height="600" viewBox="0 0 800 600" xmlns="http://www.w3.org/2000/svg">
  <defs>
    <linearGradient id="bg1" x1="0" y1="0" x2="1" y2="1">
      <stop offset="0" stop-color="#eef2ff"/>
      <stop offset="1" stop-color="#e0f2fe"/>
    </linearGradient>
    <linearGradient id="acc1" x1="0" y1="0" x2="1" y2="1">
      <stop offset="0" stop-color="#4f46e5"/>
      <stop offset="1" stop-color="#0284c7"/>
    </linearGradient>
    <radialGradient id="glow1" cx="0.3" cy="0.2" r="0.8">
      <stop offset="0" stop-color="#818cf8" stop-opacity="0.35"/>
      <stop offset="1" stop-color="#818cf8" stop-opacity="0"/>
    </radialGradient>
  </defs>
  <rect width="800" height="600" fill="url(#bg1)"/>
  <rect width="800" height="600" fill="url(#glow1)"/>
  <!-- browser window -->
  <g>
    <rect x="120" y="120" width="560" height="360" rx="18" fill="#ffffff" stroke="#c7d2fe" stroke-width="2"/>
    <rect x="120" y="120" width="560" height="48" rx="18" fill="url(#acc1)"/>
    <rect x="120" y="152" width="560" height="16" fill="url(#acc1)"/>
    <circle cx="150" cy="144" r="7" fill="#ffffff" fill-opacity="0.9"/>
    <circle cx="174" cy="144" r="7" fill="#ffffff" fill-opacity="0.6"/>
    <circle cx="198" cy="144" r="7" fill="#ffffff" fill-opacity="0.4"/>
    <rect x="250" y="134" width="300" height="20" rx="10" fill="#ffffff" fill-opacity="0.25"/>
    <!-- content blocks -->
    <rect x="150" y="200" width="220" height="130" rx="12" fill="#eef2ff"/>
    <rect x="150" y="200" width="220" height="130" rx="12" fill="none" stroke="#c7d2fe" stroke-width="2"/>
    <rect x="390" y="200" width="230" height="60" rx="10" fill="#e0f2fe"/>
    <rect x="390" y="270" width="230" height="60" rx="10" fill="#e0f2fe"/>
    <rect x="150" y="350" width="470" height="14" rx="7" fill="#c7d2fe"/>
    <rect x="150" y="376" width="380" height="14" rx="7" fill="#dbeafe"/>
    <rect x="150" y="414" width="140" height="38" rx="19" fill="url(#acc1)"/>
  </g>
  <circle cx="140" cy="500" r="34" fill="#0284c7" fill-opacity="0.12"/>
  <circle cx="700" cy="150" r="46" fill="#4f46e5" fill-opacity="0.12"/>
</svg>
