<svg width="800" height="600" viewBox="0 0 800 600" xmlns="http://www.w3.org/2000/svg">
  <defs>
    <linearGradient id="bg2" x1="0" y1="0" x2="1" y2="1">
      <stop offset="0" stop-color="#e0f2fe"/>
      <stop offset="1" stop-color="#eef2ff"/>
    </linearGradient>
    <linearGradient id="acc2" x1="0" y1="0" x2="1" y2="1">
      <stop offset="0" stop-color="#0284c7"/>
      <stop offset="1" stop-color="#4f46e5"/>
    </linearGradient>
    <radialGradient id="glow2" cx="0.8" cy="0.15" r="0.8">
      <stop offset="0" stop-color="#38bdf8" stop-opacity="0.3"/>
      <stop offset="1" stop-color="#38bdf8" stop-opacity="0"/>
    </radialGradient>
  </defs>
  <rect width="800" height="600" fill="url(#bg2)"/>
  <rect width="800" height="600" fill="url(#glow2)"/>
  <!-- layout / grid mockup -->
  <g>
    <rect x="110" y="110" width="580" height="380" rx="16" fill="#ffffff" stroke="#bae6fd" stroke-width="2"/>
    <rect x="140" y="140" width="200" height="34" rx="8" fill="url(#acc2)"/>
    <rect x="360" y="148" width="60" height="18" rx="9" fill="#dbeafe"/>
    <rect x="432" y="148" width="60" height="18" rx="9" fill="#dbeafe"/>
    <rect x="504" y="148" width="60" height="18" rx="9" fill="#dbeafe"/>
    <!-- three column grid -->
    <rect x="140" y="210" width="160" height="220" rx="12" fill="#eef2ff"/>
    <rect x="320" y="210" width="160" height="140" rx="12" fill="#e0f2fe"/>
    <rect x="320" y="360" width="160" height="70" rx="12" fill="#eef2ff"/>
    <rect x="500" y="210" width="150" height="90" rx="12" fill="#e0f2fe"/>
    <rect x="500" y="316" width="150" height="114" rx="12" fill="#eef2ff"/>
    <circle cx="220" cy="270" r="26" fill="url(#acc2)" fill-opacity="0.85"/>
    <rect x="164" y="316" width="112" height="10" rx="5" fill="#c7d2fe"/>
    <rect x="164" y="336" width="90" height="10" rx="5" fill="#dbeafe"/>
  </g>
  <circle cx="700" cy="500" r="40" fill="#0284c7" fill-opacity="0.14"/>
  <circle cx="120" cy="150" r="30" fill="#4f46e5" fill-opacity="0.12"/>
</svg>
